# xmcd
# Copyright (C) 1995-1998 Ti Kan
#
# Track frame offsets:
#       150
#       24008
#       38181
#       53230
#       69028
#       79678
#       101178
#
# Disc length: 1644 seconds
#
# Revision: 0
# Processed by: cddbd v1.5.2PL0 Copyright (c) Steve Scherf et al.
# Submitted via: CD-Import v1.0
#
DISCID=4a066a07
DTITLE=Prader and Knecht - Demo
DYEAR=10
DGENRE=
TTITLE0=Trouble Song
TTITLE1=Train Train Train
TTITLE2=Get Off
TTITLE3=Story Should Not Be Told
TTITLE4=Shout Out Loud
TTITLE5=Let Me Get - Let Me Be
TTITLE6=Heavy Loads
EXTD=
EXTT0=
EXTT1=
EXTT2=
EXTT3=
EXTT4=
EXTT5=
EXTT6=
PLAYORDER=
